<?xml version="1.0" standalone="no"?>
<!DOCTYPE svg PUBLIC "-//W3C//DTD SVG 20010904//EN"
 "http://www.w3.org/TR/2001/REC-SVG-20010904/DTD/svg10.dtd">
<svg version="1.0" xmlns="http://www.w3.org/2000/svg"
 width="400.000000pt" height="400.000000pt" viewBox="0 0 400.000000 400.000000"
 preserveAspectRatio="xMidYMid meet">

<g transform="translate(0.000000,400.000000) scale(0.100000,-0.100000)"
fill="#000000" stroke="none">
<path d="M0 2000 l0 -2000 2000 0 2000 0 0 2000 0 2000 -2000 0 -2000 0 0
-2000z m810 1740 l0 -180 45 0 45 0 0 180 c0 113 4 180 10 180 6 0 10 -67 10
-180 l0 -180 335 0 335 0 0 180 0 180 180 0 c173 0 180 -1 180 -20 0 -20 7
-20 335 -20 328 0 335 0 335 20 0 19 7 20 230 20 l230 0 0 -180 0 -180 175 0
175 0 0 180 0 180 245 0 245 0 0 -1685 0 -1685 -640 0 -640 0 0 -235 0 -235
-905 0 -905 0 0 105 0 105 175 0 175 0 0 985 0 985 -175 0 -175 0 0 260 0 260
-375 0 -375 0 0 570 0 570 365 0 365 0 0 -180z"/>
<path d="M1782 3663 c-25 -10 -34 -53 -17 -79 35 -53 119 -11 96 48 -13 33
-44 45 -79 31z"/>
<path d="M2253 3647 c-40 -18 -42 -76 -3 -97 47 -25 100 23 77 70 -15 29 -46
40 -74 27z"/>
<path d="M1800 2895 c-19 -22 -15 -67 6 -82 28 -20 66 -12 83 18 13 24 13 29
-2 53 -20 30 -67 36 -87 11z"/>
<path d="M2252 2898 c-19 -19 -14 -63 8 -83 16 -15 26 -17 47 -9 37 13 49 37
37 71 -7 22 -16 29 -44 31 -19 2 -41 -3 -48 -10z"/>
<path d="M3092 2218 c-13 -13 -16 -47 -4 -64 24 -35 82 -18 82 24 0 33 -16 52
-45 52 -12 0 -26 -5 -33 -12z"/>
<path d="M3552 2188 c-28 -28 -7 -78 33 -78 27 0 45 18 45 45 0 27 -18 45 -45
45 -12 0 -26 -5 -33 -12z"/>
<path d="M3582 1738 c-7 -7 -12 -25 -12 -40 0 -54 82 -57 88 -4 2 15 -2 34 -9
42 -14 17 -51 18 -67 2z"/>
<path d="M3125 1724 c-24 -25 -15 -67 17 -78 34 -12 58 6 58 45 0 43 -45 63
-75 33z"/>
<path d="M3110 1360 c-11 -11 -20 -23 -20 -28 0 -18 33 -52 50 -52 24 0 50 26
50 50 0 22 -26 50 -46 50 -8 0 -23 -9 -34 -20z"/>
<path d="M3560 1331 c-5 -11 -10 -26 -10 -35 0 -14 36 -46 52 -46 13 0 48 39
48 54 0 41 -71 62 -90 27z"/>
<path d="M3595 880 c-35 -39 3 -91 55 -75 28 9 37 51 15 75 -23 25 -47 25 -70
0z"/>
<path d="M3131 858 c-12 -33 -2 -57 27 -65 31 -7 56 7 60 36 5 31 -15 51 -50
51 -20 0 -31 -6 -37 -22z"/>
<path d="M1410 489 c-31 -13 -78 -56 -95 -89 -22 -44 -26 -94 -10 -146 32
-110 154 -164 261 -115 142 65 141 278 -1 346 -37 17 -117 19 -155 4z"/>
</g>
</svg>
