<?xml version="1.0" standalone="no"?>
<!DOCTYPE svg PUBLIC "-//W3C//DTD SVG 20010904//EN"
 "http://www.w3.org/TR/2001/REC-SVG-20010904/DTD/svg10.dtd">
<svg version="1.0" xmlns="http://www.w3.org/2000/svg"
 width="200.000000pt" height="200.000000pt" viewBox="0 0 200.000000 200.000000"
 preserveAspectRatio="xMidYMid meet">

<g transform="translate(0.000000,200.000000) scale(0.100000,-0.100000)"
fill="#000000" stroke="none">
<path d="M0 1000 l0 -1000 1000 0 1000 0 0 1000 0 1000 -1000 0 -1000 0 0
-1000z m1970 280 c0 -655 -1 -690 -17 -682 -10 5 -252 131 -538 281 -287 149
-529 271 -538 271 -10 0 -17 -8 -17 -17 0 -13 146 -94 555 -307 l555 -288 0
-254 0 -254 -596 0 c-473 0 -594 3 -588 13 5 6 65 77 134 157 69 80 136 159
149 177 23 31 22 53 -3 53 -11 0 -268 -288 -326 -366 l-25 -33 -342 -1 -343 0
0 585 c0 488 2 584 14 579 7 -3 34 -33 59 -67 144 -195 225 -292 242 -292 35
0 26 30 -32 107 -165 216 -254 326 -268 332 -12 4 -15 27 -15 127 l0 121 58
-6 c31 -3 127 -10 212 -16 85 -6 179 -13 208 -16 l52 -5 0 -505 0 -504 25 0
25 0 2 234 3 234 410 -230 c514 -288 505 -283 516 -266 5 7 9 16 9 19 0 4
-211 125 -470 269 l-470 262 0 248 0 248 33 11 c303 96 620 193 649 198 32 5
38 10 38 29 0 19 -5 24 -25 24 -14 0 -183 -47 -377 -105 l-353 -105 -256 20
c-142 11 -264 20 -273 20 -14 0 -16 23 -16 195 l0 195 970 0 970 0 0 -690z"/>
</g>
</svg>
