<?xml version="1.0" standalone="no"?>
<!DOCTYPE svg PUBLIC "-//W3C//DTD SVG 20010904//EN"
 "http://www.w3.org/TR/2001/REC-SVG-20010904/DTD/svg10.dtd">
<svg version="1.0" xmlns="http://www.w3.org/2000/svg"
 width="1000.000000pt" height="1000.000000pt" viewBox="0 0 1000.000000 1000.000000"
 preserveAspectRatio="xMidYMid meet">
<metadata>
Created by potrace 1.16, written by Peter Selinger 2001-2019
</metadata>
<g transform="translate(0.000000,1000.000000) scale(0.100000,-0.100000)"
fill="#000000" stroke="none">
<path d="M0 5000 l0 -5000 5000 0 5000 0 0 5000 0 5000 -5000 0 -5000 0 0
-5000z m7280 4355 c14 0 31 4 38 8 6 5 12 4 12 0 0 -5 28 -9 63 -10 96 -1 140
-6 160 -15 11 -6 17 -5 17 2 0 6 5 8 10 5 12 -8 73 -18 113 -19 15 0 27 -3 27
-7 0 -4 11 -6 25 -4 14 1 25 -1 25 -4 0 -4 9 -8 20 -9 11 -1 28 -2 38 -3 9 -1
23 -7 31 -13 12 -9 13 -8 6 4 -8 13 -7 13 8 1 9 -7 17 -10 17 -6 0 4 7 2 15
-5 8 -6 19 -9 24 -6 5 4 13 1 16 -5 4 -5 13 -8 21 -5 7 3 16 1 19 -5 4 -5 11
-7 16 -4 5 4 9 1 9 -5 0 -6 4 -9 9 -6 5 4 30 -3 55 -14 25 -10 46 -17 46 -13
0 3 7 -1 17 -8 9 -8 17 -13 17 -11 1 4 52 -15 90 -34 16 -8 35 -14 43 -14 7 0
13 -4 13 -10 0 -5 9 -10 19 -10 11 0 21 -3 23 -7 2 -5 26 -19 53 -33 28 -14
55 -29 62 -35 7 -5 19 -16 27 -23 9 -7 17 -11 18 -10 6 4 68 -36 68 -44 0 -4
7 -8 15 -8 8 0 15 -3 15 -8 0 -4 18 -18 39 -32 22 -13 38 -28 35 -32 -3 -4 0
-8 5 -8 13 0 45 -25 85 -67 17 -18 37 -33 45 -33 8 0 11 -3 8 -7 -4 -3 8 -17
25 -30 18 -12 29 -23 26 -23 -3 0 15 -22 41 -49 25 -26 50 -46 55 -43 5 3 6 1
3 -4 -3 -5 12 -30 34 -54 22 -25 52 -63 67 -85 15 -22 31 -43 37 -47 6 -4 6
-8 1 -8 -6 0 -1 -7 10 -15 10 -8 15 -15 11 -15 -4 0 4 -12 18 -27 14 -15 25
-33 25 -39 0 -5 9 -20 20 -32 12 -12 18 -22 15 -22 -4 0 3 -16 15 -35 12 -19
19 -35 15 -35 -3 0 1 -7 9 -16 9 -8 14 -19 11 -24 -3 -4 2 -11 11 -14 8 -3 12
-11 9 -17 -4 -5 1 -19 12 -31 10 -11 17 -22 16 -24 -5 -8 10 -65 18 -70 5 -3
9 -15 9 -28 0 -12 3 -26 7 -29 5 -6 13 -48 16 -84 0 -7 3 -13 7 -13 3 0 7 -12
8 -27 1 -43 8 -79 17 -93 5 -8 4 -11 -3 -6 -7 4 -10 -1 -9 -14 1 -11 4 -20 7
-20 4 0 6 -10 4 -22 -1 -13 -3 -23 -4 -23 -1 0 -11 -144 -11 -167 0 -10 -5
-20 -10 -24 -6 -4 -6 -11 2 -20 9 -11 9 -14 0 -14 -7 0 -10 -4 -7 -8 3 -5 -1
-20 -9 -35 -8 -15 -10 -27 -5 -27 5 0 2 -13 -6 -30 -9 -16 -13 -34 -9 -40 3
-5 2 -10 -3 -10 -9 0 -24 -40 -21 -56 0 -4 -4 -10 -10 -13 -6 -4 -12 -19 -13
-33 -1 -15 -6 -26 -11 -25 -5 1 -11 -6 -12 -16 -2 -10 -12 -30 -21 -45 -10
-15 -19 -30 -19 -34 0 -4 -8 -16 -17 -27 -9 -11 -14 -22 -11 -25 4 -3 1 -6 -5
-6 -7 0 -12 -7 -12 -15 0 -8 -5 -15 -12 -15 -6 0 -9 -3 -5 -6 3 -3 -6 -18 -21
-33 -15 -15 -28 -34 -30 -42 -2 -8 -10 -20 -19 -26 -9 -7 -14 -13 -10 -13 4 0
-1 -8 -10 -18 -37 -38 -63 -72 -55 -72 4 -1 -4 -7 -18 -15 -14 -8 -21 -14 -16
-15 5 0 -1 -9 -14 -20 -13 -11 -21 -20 -18 -20 4 0 -7 -14 -23 -31 -16 -17
-26 -36 -22 -43 3 -6 3 -8 -2 -4 -7 7 -45 -32 -45 -46 0 -4 -5 -12 -10 -19
-41 -48 -50 -62 -50 -74 0 -7 0 -16 0 -20 0 -5 10 -9 22 -11 13 -1 29 -3 36
-4 6 -1 12 -6 12 -11 0 -5 7 -7 15 -3 8 3 15 1 15 -4 0 -6 3 -9 8 -8 4 1 20
-4 35 -10 16 -7 32 -12 36 -12 5 0 14 -7 21 -15 7 -8 17 -12 22 -9 6 4 14 0
19 -7 4 -8 12 -14 16 -15 18 -2 49 -18 68 -35 11 -10 23 -17 27 -16 8 2 80
-49 119 -85 16 -16 34 -28 40 -28 6 0 7 -4 4 -10 -3 -5 -2 -10 4 -10 5 0 26
-16 45 -35 20 -19 33 -35 30 -35 -4 0 5 -11 20 -25 14 -13 26 -27 26 -30 0 -4
6 -12 13 -20 28 -30 46 -55 39 -55 -4 0 0 -6 8 -13 18 -15 47 -62 61 -99 6
-16 15 -28 20 -28 5 0 9 -5 9 -11 0 -6 13 -40 30 -76 16 -35 33 -75 36 -89 3
-13 10 -27 15 -30 5 -3 9 -16 9 -29 0 -13 5 -27 10 -30 6 -3 10 -17 10 -30 0
-13 4 -26 8 -29 4 -2 9 -19 10 -37 1 -17 6 -37 9 -43 4 -6 8 -20 10 -31 1 -11
4 -31 6 -45 11 -56 18 -129 21 -201 2 -42 6 -81 9 -86 3 -5 2 -15 -3 -23 -5
-9 -5 -19 2 -27 6 -7 6 -13 1 -13 -10 0 -10 -60 1 -78 4 -7 3 -12 -1 -12 -5 0
-9 -27 -8 -60 0 -33 -2 -60 -5 -60 -3 0 -6 -15 -5 -32 0 -18 -4 -36 -10 -40
-6 -5 -5 -8 3 -8 7 0 10 -5 7 -11 -6 -9 -14 -46 -20 -94 -1 -11 -3 -20 -5 -20
-1 0 -3 -9 -5 -20 -6 -45 -16 -93 -32 -150 -8 -33 -16 -70 -16 -82 -1 -12 -5
-20 -9 -17 -4 3 -11 -13 -14 -36 -4 -22 -10 -40 -14 -40 -3 0 -7 -7 -8 -15 -1
-8 -3 -22 -4 -30 -1 -8 -6 -15 -11 -15 -6 0 -7 -3 -4 -7 4 -3 2 -12 -4 -20 -6
-7 -8 -13 -3 -13 5 0 4 -4 -3 -8 -6 -4 -13 -14 -15 -22 -2 -8 -10 -21 -18 -28
-8 -8 -9 -11 -2 -7 7 4 -8 -28 -32 -69 -25 -42 -42 -76 -38 -76 4 0 -2 -7 -13
-16 -11 -8 -20 -19 -20 -23 0 -5 -13 -24 -30 -43 -16 -18 -29 -35 -29 -38 3
-14 -10 -30 -25 -31 -9 0 -11 -3 -5 -5 6 -2 -21 -37 -59 -77 -39 -39 -69 -73
-69 -74 1 -2 1 -2 0 -2 -6 3 -93 -87 -91 -93 2 -5 0 -7 -5 -6 -7 3 -84 -52
-127 -89 -7 -7 -16 -13 -20 -13 -6 0 -16 -8 -54 -40 -10 -8 -24 -16 -32 -18
-8 -2 -15 -8 -17 -13 -2 -5 -10 -9 -18 -9 -8 0 -14 -5 -14 -11 0 -5 -4 -7 -10
-4 -5 3 -10 1 -10 -6 0 -7 -3 -10 -6 -6 -4 3 -13 -1 -21 -9 -8 -8 -19 -12 -24
-9 -5 4 -9 1 -9 -4 0 -6 -6 -11 -14 -11 -8 0 -16 -3 -18 -7 -5 -13 -145 -78
-160 -75 -5 1 -8 -3 -8 -9 0 -5 -4 -7 -10 -4 -5 3 -10 1 -10 -4 0 -6 -3 -10
-7 -9 -8 3 -66 -17 -95 -33 -10 -5 -26 -9 -36 -9 -10 0 -23 -5 -30 -12 -7 -7
-12 -9 -12 -6 0 4 -15 1 -32 -6 -18 -7 -39 -11 -45 -9 -7 3 -13 0 -13 -5 0 -6
-8 -9 -17 -8 -10 2 -31 -3 -48 -9 -16 -7 -39 -11 -49 -9 -11 1 -24 0 -30 -4
-10 -6 -27 -8 -104 -13 -18 -1 -35 -6 -38 -11 -3 -4 -11 -5 -17 -1 -18 11 -47
11 -54 0 -3 -5 -9 -3 -14 4 -7 11 -9 11 -9 1 0 -8 -5 -10 -12 -6 -7 4 -39 9
-73 10 -33 1 -78 6 -100 9 -22 4 -52 8 -67 8 -16 1 -28 4 -28 9 0 4 -9 5 -20
3 -11 -2 -20 0 -20 4 0 4 -6 8 -14 8 -14 0 -100 21 -126 31 -8 3 -18 6 -22 7
-5 2 -11 4 -15 5 -5 1 -12 2 -17 1 -4 -1 -13 2 -20 7 -10 8 -67 25 -74 23 -1
-1 -15 5 -31 13 -16 9 -31 12 -35 9 -3 -4 -6 -1 -6 4 0 6 -18 14 -40 18 -22 4
-40 11 -40 16 0 6 -4 8 -8 5 -5 -3 -20 1 -35 9 -15 8 -27 12 -27 9 0 -2 -13 2
-30 11 -16 9 -30 13 -30 10 0 -3 -14 2 -31 11 -17 8 -38 17 -47 19 -10 2 -53
15 -97 30 -44 15 -88 27 -97 28 -10 1 -18 5 -18 9 0 4 -13 8 -28 8 -16 0 -32
3 -36 7 -3 4 -14 8 -24 9 -9 1 -28 5 -42 9 -14 3 -32 8 -40 10 -8 2 -17 4 -20
5 -3 1 -15 1 -27 0 -13 -1 -23 2 -23 7 0 8 -19 11 -121 17 -30 1 -61 6 -67 10
-7 4 -12 2 -12 -4 0 -7 -5 -8 -12 -3 -18 11 -30 11 -50 1 -10 -5 -18 -5 -18 0
0 4 -9 8 -20 8 -11 0 -20 -3 -20 -6 0 -10 -44 -6 -52 5 -5 7 -8 6 -8 0 0 -6
-15 -12 -33 -13 -18 -1 -44 -5 -57 -7 -14 -3 -37 -7 -52 -10 -15 -3 -40 -10
-55 -16 -15 -6 -28 -9 -28 -8 0 5 -81 -24 -92 -33 -7 -5 -17 -7 -23 -3 -5 3
-10 1 -10 -4 0 -6 -3 -10 -7 -9 -11 2 -67 -25 -75 -37 -4 -5 -8 -6 -8 -2 0 9
-115 -49 -142 -71 -10 -9 -18 -12 -18 -9 0 6 -61 -31 -86 -52 -7 -6 -15 -7
-18 -4 -3 4 -6 1 -6 -5 0 -7 -7 -12 -15 -12 -9 0 -18 -7 -21 -15 -4 -8 -10
-12 -15 -9 -5 3 -12 -2 -15 -10 -3 -9 -10 -13 -15 -10 -5 3 -9 0 -9 -5 0 -6
-5 -11 -11 -11 -8 0 -73 -44 -115 -78 -5 -5 -21 -15 -33 -22 -41 -21 -110 -78
-104 -84 4 -3 -3 -6 -14 -6 -12 0 -24 -7 -27 -16 -4 -9 -9 -14 -12 -11 -3 3
-13 -2 -23 -11 -35 -35 -94 -77 -103 -74 -5 1 -7 -2 -3 -8 3 -5 2 -10 -4 -10
-5 0 -27 -17 -47 -37 -21 -21 -34 -31 -29 -23 4 8 -4 4 -17 -10 -14 -14 -42
-38 -62 -55 -21 -16 -55 -48 -77 -69 -21 -22 -39 -36 -39 -33 0 4 -16 -9 -35
-28 -19 -19 -39 -35 -45 -35 -6 0 -9 -4 -6 -8 3 -5 -5 -15 -16 -23 -12 -8 -38
-31 -58 -52 -20 -20 -42 -37 -49 -37 -7 0 -9 -4 -6 -10 3 -5 2 -10 -2 -10 -5
0 -44 -34 -88 -75 -43 -41 -80 -75 -82 -75 -2 0 -16 -13 -31 -29 -15 -15 -39
-36 -54 -46 -15 -9 -25 -21 -22 -26 5 -8 -9 -13 -28 -10 -5 0 -8 -6 -8 -14 0
-8 -3 -15 -8 -15 -4 0 -20 -11 -35 -25 -15 -14 -27 -24 -27 -21 0 2 -19 -13
-43 -34 -70 -64 -75 -69 -81 -62 -3 3 -6 -2 -6 -11 0 -10 -3 -16 -7 -16 -19 3
-34 -2 -29 -10 6 -8 -43 -36 -57 -32 -5 1 -6 -3 -2 -9 3 -5 1 -10 -5 -10 -6 0
-8 -5 -5 -10 4 -6 3 -10 -2 -9 -22 4 -43 -2 -38 -11 3 -5 1 -10 -5 -10 -7 0
-23 -9 -37 -20 -14 -11 -30 -17 -36 -13 -6 3 -7 1 -3 -5 4 -7 -3 -14 -19 -18
-14 -3 -25 -9 -25 -14 0 -4 -18 -15 -40 -25 -22 -10 -40 -22 -40 -27 0 -5 -4
-7 -9 -3 -5 3 -12 1 -16 -5 -4 -6 -11 -8 -16 -5 -5 4 -12 -1 -15 -9 -3 -9 -11
-16 -18 -16 -6 0 -33 -11 -61 -25 -27 -13 -56 -25 -62 -25 -7 0 -13 -4 -13 -8
0 -5 -6 -9 -12 -9 -7 -1 -43 -12 -80 -27 -38 -14 -68 -22 -68 -18 0 4 -5 -1
-11 -12 -9 -15 -13 -16 -20 -5 -7 11 -9 11 -9 1 0 -7 -5 -10 -10 -7 -5 3 -10
2 -10 -4 0 -6 -7 -8 -15 -5 -8 4 -15 1 -15 -5 0 -6 -7 -8 -15 -5 -8 4 -15 2
-15 -3 0 -5 -10 -9 -22 -10 -20 -2 -74 -16 -118 -31 -8 -2 -31 -7 -50 -9 -19
-2 -37 -7 -40 -11 -3 -4 -15 -7 -28 -6 -12 1 -22 -2 -22 -5 0 -3 -12 -7 -27
-8 -16 -1 -44 -4 -63 -8 -46 -8 -83 -13 -150 -20 -104 -10 -118 -12 -127 -18
-5 -3 -15 -2 -23 3 -8 5 -22 5 -32 -1 -12 -7 -18 -6 -18 1 0 6 -5 8 -12 4 -19
-12 -58 -13 -58 -2 0 7 -4 7 -13 0 -13 -11 -42 -11 -53 1 -4 3 -12 3 -18 0
-17 -11 -50 -9 -58 2 -5 6 -8 5 -8 -3 0 -7 -4 -11 -9 -8 -5 3 -40 9 -78 12
-116 9 -147 13 -191 24 -24 6 -47 8 -52 5 -4 -3 -10 -1 -12 5 -1 5 -18 10 -35
12 -18 1 -33 5 -33 8 0 4 -6 7 -12 8 -27 2 -72 13 -90 23 -10 5 -18 7 -18 4 0
-3 -11 2 -25 11 -13 8 -29 13 -35 9 -5 -3 -10 -2 -10 3 0 9 -46 26 -53 20 -2
-2 -11 5 -21 15 -10 9 -22 15 -27 12 -5 -4 -9 -1 -9 5 0 6 -4 8 -10 5 -5 -3
-10 -2 -10 3 0 9 -19 18 -57 27 -7 2 -19 10 -27 18 -8 7 -28 20 -45 27 -17 7
-31 17 -31 22 0 5 -5 6 -10 3 -6 -3 -10 -2 -10 2 0 5 -15 17 -32 28 -38 21
-121 86 -126 98 -2 4 -8 7 -13 7 -5 0 -41 33 -81 73 -40 39 -77 70 -83 69 -5
-2 -7 0 -3 4 4 4 0 13 -10 21 -11 9 -11 12 -2 7 8 -4 0 6 -17 23 -18 16 -33
34 -33 39 0 5 -9 16 -19 24 -11 7 -18 17 -15 22 3 4 0 8 -6 8 -6 0 -8 5 -5 10
3 6 1 10 -5 10 -6 0 -15 11 -20 25 -5 14 -14 25 -20 25 -5 0 -10 9 -10 20 0
11 -4 20 -8 20 -5 0 -14 16 -22 35 -7 19 -16 32 -20 30 -3 -2 -7 6 -7 18 -1
12 -7 23 -13 25 -5 2 -8 8 -4 13 3 5 0 9 -5 9 -6 0 -10 3 -9 8 1 4 -4 19 -10
35 -21 48 -33 82 -31 82 1 0 -4 11 -11 25 -8 14 -15 31 -16 38 -1 8 -6 21 -10
30 -4 9 -9 28 -11 42 -2 13 -9 30 -15 37 -6 7 -7 13 -3 13 4 0 1 8 -6 17 -12
15 -12 16 1 8 13 -8 13 -7 1 8 -8 10 -15 32 -17 50 -4 34 -11 72 -14 72 -1 0
-4 11 -6 25 -2 14 -5 39 -8 55 -6 43 -17 135 -20 170 -1 17 -5 36 -9 43 -5 7
-3 12 3 12 8 0 7 6 -1 21 -8 16 -8 20 1 14 9 -6 9 -3 2 12 -6 11 -7 25 -2 33
5 8 6 18 4 22 -11 17 -12 48 -2 48 7 0 6 5 -1 14 -8 10 -9 16 -1 21 6 4 7 12
1 24 -5 9 -6 22 -2 29 4 7 7 37 7 67 -1 30 1 55 4 55 5 0 8 37 13 162 1 21 4
38 7 38 3 0 5 29 5 65 0 36 2 65 6 65 3 0 5 29 5 65 -1 36 2 65 5 65 3 0 5 19
4 43 -1 23 1 46 3 51 3 4 5 32 6 62 1 29 5 56 9 60 4 4 2 13 -4 21 -9 10 -8
13 1 13 8 0 10 3 7 6 -3 4 -2 15 4 25 7 13 6 19 -1 19 -6 0 -8 4 -5 10 3 5 8
26 11 46 2 21 6 49 9 63 2 14 7 44 11 66 8 49 12 70 14 70 1 0 3 9 5 20 7 35
18 90 22 105 3 8 5 25 6 38 0 12 4 22 7 22 6 0 8 11 13 60 1 14 5 27 9 30 3 3
9 21 11 40 3 19 6 35 7 35 1 0 3 7 5 16 4 23 35 159 42 184 3 11 5 32 5 48 0
15 3 27 7 27 4 0 8 12 9 28 1 15 4 43 7 62 3 19 7 53 9 75 2 22 7 58 10 80 3
22 8 83 11 135 4 52 9 98 11 102 3 5 -1 8 -8 8 -9 0 -10 3 -2 8 6 4 10 15 8
25 -1 9 3 17 9 17 8 0 8 3 2 8 -10 7 -15 92 -5 92 3 0 6 30 7 68 1 37 2 67 3
67 1 0 3 16 5 35 11 130 15 158 21 175 6 14 4 16 -7 10 -12 -8 -12 -6 -1 8 12
15 22 65 25 140 1 15 6 27 11 27 4 0 6 7 3 15 -4 8 -2 17 3 20 4 3 7 13 6 23
-2 9 1 31 6 47 5 17 11 39 13 50 2 11 7 34 10 50 4 17 8 36 8 43 0 6 4 12 9
12 5 0 7 4 4 9 -3 5 0 28 7 52 8 24 14 46 14 49 1 3 6 25 13 50 16 61 21 83
22 98 1 6 4 12 8 12 3 0 7 8 8 18 6 49 8 57 15 63 4 3 10 17 12 30 3 13 18 61
34 107 16 45 26 82 23 82 -4 0 -1 4 6 8 7 5 14 17 16 28 2 10 16 45 30 78 14
32 23 62 20 67 -3 5 1 9 9 9 8 0 14 6 14 13 -1 18 35 97 45 97 4 0 8 9 8 19 0
11 5 23 10 26 6 4 8 11 5 16 -4 5 -1 9 4 9 6 0 17 15 25 34 8 18 19 37 25 40
6 4 9 12 6 17 -4 5 -2 9 3 9 6 0 15 14 21 30 5 17 15 30 21 30 6 0 8 5 5 10
-3 6 1 13 9 16 9 3 13 10 10 15 -3 5 2 12 10 15 9 3 14 9 11 14 -2 4 4 16 14
27 10 11 22 29 25 41 4 12 11 20 16 17 4 -3 14 8 22 25 7 16 16 30 20 30 5 0
8 5 8 10 0 10 8 22 38 55 6 7 12 16 12 19 0 3 8 14 18 24 31 34 52 62 52 71 0
5 3 11 8 13 4 2 23 23 42 48 19 25 39 48 45 52 5 4 6 8 1 8 -6 0 -3 6 5 13 8
6 33 35 54 62 22 28 47 56 57 63 10 7 18 18 18 23 0 5 12 21 26 34 15 14 23
25 19 25 -4 0 9 15 29 34 20 19 36 37 36 40 0 3 23 28 50 57 28 29 50 56 50
61 0 5 5 6 10 3 6 -3 10 1 10 10 0 9 5 13 10 10 5 -3 10 1 10 9 0 8 9 18 21
21 11 4 18 9 16 12 -3 2 16 23 41 46 26 23 61 56 78 72 56 54 89 80 97 77 4
-1 7 2 7 7 0 5 30 31 68 57 37 26 69 51 72 54 3 4 24 17 48 30 23 13 42 27 42
32 0 4 7 8 15 8 8 0 15 5 15 11 0 5 5 7 10 4 5 -3 10 -1 10 5 0 6 4 9 9 5 6
-3 14 3 20 12 6 10 11 14 11 10 0 -5 13 1 30 13 16 12 30 18 30 15 0 -4 7 1
16 9 8 9 19 14 24 11 5 -3 10 -1 12 4 1 5 10 11 18 13 8 2 18 7 21 11 3 5 12
9 20 11 8 1 24 8 37 14 12 7 22 10 22 7 0 -3 10 1 23 8 12 8 48 22 80 32 31
11 57 22 57 26 0 4 9 5 20 2 12 -3 20 0 20 7 0 6 6 10 13 7 6 -2 26 0 42 5 42
13 63 17 115 24 62 9 245 9 300 1 74 -12 79 -13 86 -20 4 -4 20 -7 35 -7 15 0
29 -4 31 -10 2 -5 15 -11 30 -12 15 -1 25 -5 22 -9 -2 -4 10 -12 28 -18 17 -6
40 -19 50 -28 10 -9 18 -13 18 -9 0 8 17 -5 82 -66 27 -27 54 -48 58 -48 5 0
11 -9 15 -19 3 -11 12 -22 20 -25 8 -3 15 -12 15 -21 0 -8 3 -15 8 -15 6 0 38
-49 38 -60 1 -3 13 -24 28 -48 15 -23 24 -48 20 -54 -5 -7 -3 -8 6 -3 10 6 12
4 7 -8 -3 -9 -2 -19 3 -22 6 -4 10 -15 10 -26 0 -11 4 -18 9 -15 4 3 8 -2 8
-12 -1 -9 4 -35 11 -57 14 -51 25 -104 26 -132 1 -13 3 -23 6 -23 3 0 5 -12 4
-27 -1 -16 1 -32 5 -38 9 -17 10 -35 0 -35 -5 0 -4 -12 1 -26 7 -19 7 -31 -1
-40 -6 -8 -7 -14 -2 -14 11 0 10 -101 -2 -120 -5 -9 -4 -15 3 -18 7 -2 9 -9 5
-15 -15 -25 -22 -217 -8 -218 6 0 5 -2 -1 -5 -8 -3 -9 -16 -4 -38 7 -33 5
-228 -4 -326 -7 -69 -16 -179 -20 -247 -2 -29 0 -53 5 -53 5 0 8 -3 7 -7 -3
-14 34 -93 43 -93 5 0 9 -7 9 -15 0 -8 3 -15 8 -15 4 0 18 -10 32 -22 44 -40
65 -54 56 -39 -7 10 -3 10 15 -2 13 -8 34 -14 47 -12 12 1 22 -3 22 -9 0 -6 5
-5 12 2 8 8 15 9 25 1 9 -8 13 -8 13 -1 0 6 6 9 14 6 8 -3 17 0 21 5 3 6 10 9
15 6 5 -3 19 -1 32 4 12 5 28 9 33 11 6 1 14 8 18 16 4 8 13 14 18 14 14 0
137 129 145 152 3 10 10 18 15 18 5 0 9 5 9 11 0 6 7 17 15 26 8 8 13 19 10
24 -4 5 -1 9 4 9 6 0 11 6 11 14 0 8 4 16 9 18 5 2 11 10 13 18 2 8 9 21 16
28 7 8 10 17 7 22 -3 5 -1 10 3 12 8 2 102 191 102 203 0 2 19 43 42 92 24 48
43 91 43 95 0 4 8 16 17 27 9 11 13 22 10 26 -4 3 -2 9 3 13 6 4 23 34 40 67
16 33 34 63 40 67 5 4 6 8 1 8 -5 0 -3 7 4 15 7 8 9 15 4 15 -4 0 1 7 12 15
10 8 16 15 12 15 -7 0 49 110 61 120 4 3 12 18 19 33 12 28 117 191 137 213 5
6 17 21 25 34 8 12 30 38 47 58 18 20 33 41 33 45 0 5 5 5 12 1 8 -5 9 -2 4
12 -4 10 -4 15 -1 12 4 -4 33 19 64 50 75 74 131 123 131 115 0 -4 9 3 20 15
12 12 25 22 31 22 6 0 7 5 4 10 -5 9 16 15 38 11 5 -1 5 3 2 9 -4 7 2 14 14
17 12 3 21 10 21 15 0 5 4 7 8 4 5 -3 14 4 22 14 8 10 17 17 22 14 4 -3 8 0 8
6 0 6 5 8 10 5 6 -3 10 -1 10 6 0 7 3 10 6 6 3 -3 14 2 25 11 10 9 40 28 66
42 26 13 51 29 55 35 5 6 8 6 8 0 0 -5 4 -4 9 4 5 8 20 16 32 18 13 2 26 7 29
11 10 14 51 33 59 27 5 -3 12 2 15 11 3 8 10 12 16 9 5 -3 10 -1 10 4 0 6 6
11 13 11 6 1 30 9 52 20 22 10 43 16 47 14 5 -3 8 -1 8 4 0 9 47 27 63 24 4
-1 7 3 7 9 0 5 4 8 9 4 5 -3 12 -1 15 4 5 7 55 22 72 20 4 0 10 3 13 8 5 7 72
30 111 37 8 2 35 9 60 16 25 8 53 14 63 16 9 1 18 3 20 4 1 1 13 4 27 6 40 6
54 9 65 15 6 3 20 4 33 3 12 0 22 1 22 5 0 3 19 6 43 6 23 0 47 2 52 5 6 2 26
6 45 7 101 7 120 9 126 15 4 4 14 4 23 0 9 -5 27 -8 41 -7z"/>
<path d="M7330 8450 c-14 -3 -35 -5 -47 -4 -13 1 -23 -2 -23 -5 0 -4 -10 -7
-22 -8 -13 0 -36 -4 -53 -7 -16 -4 -36 -8 -42 -8 -7 -1 -13 -4 -13 -7 0 -3
-12 -7 -27 -8 -15 0 -29 -6 -31 -12 -2 -6 -8 -9 -13 -6 -4 3 -22 -1 -39 -10
-16 -8 -30 -13 -30 -9 0 4 -7 1 -15 -6 -8 -7 -15 -9 -15 -6 0 4 -7 0 -16 -8
-8 -9 -20 -14 -25 -11 -5 4 -9 2 -9 -3 0 -8 -30 -21 -48 -22 -1 0 -12 -9 -24
-19 -11 -11 -25 -18 -30 -15 -4 3 -8 0 -8 -5 0 -6 -7 -11 -15 -11 -8 0 -15 -4
-15 -10 0 -5 -5 -10 -10 -10 -6 0 -16 -4 -23 -10 -69 -57 -127 -100 -127 -95
0 4 -14 -9 -32 -29 -17 -20 -37 -36 -43 -36 -6 0 -18 -11 -25 -25 -7 -14 -15
-23 -18 -20 -3 2 -17 -9 -32 -25 -16 -17 -31 -30 -34 -30 -3 0 -24 -19 -47
-42 -24 -24 -47 -42 -52 -40 -5 2 -7 -4 -3 -13 3 -9 2 -14 -2 -11 -4 2 -65
-54 -135 -125 -71 -71 -125 -129 -122 -129 3 0 -6 -11 -21 -25 -15 -14 -24
-25 -21 -25 4 0 -9 -16 -29 -35 -19 -19 -32 -35 -29 -35 5 0 -26 -38 -57 -72
-10 -10 -18 -21 -18 -24 0 -13 -38 -53 -45 -46 -3 4 -5 2 -3 -4 3 -10 -22 -51
-52 -83 -8 -9 -22 -25 -30 -36 -13 -17 -13 -18 0 -11 8 4 5 -1 -7 -10 -13 -9
-23 -23 -23 -30 0 -8 -3 -14 -8 -14 -4 0 -18 -18 -32 -40 -14 -22 -29 -40 -34
-40 -5 0 -7 -3 -4 -6 4 -3 -1 -14 -10 -24 -29 -31 -42 -49 -42 -55 0 -3 -8
-14 -17 -24 -32 -35 -44 -51 -38 -51 6 0 -4 -13 -34 -46 -8 -9 -34 -41 -58
-72 -60 -78 -94 -120 -120 -150 -13 -14 -23 -29 -23 -34 0 -5 -4 -6 -10 -3 -5
3 -10 0 -10 -7 0 -7 -16 -29 -35 -48 -19 -19 -35 -38 -35 -43 0 -4 -4 -5 -10
-2 -5 3 -10 1 -10 -4 0 -6 -25 -36 -55 -66 -30 -30 -55 -59 -55 -65 0 -5 -4
-10 -10 -10 -5 0 -30 -21 -56 -47 -26 -27 -51 -47 -56 -45 -4 1 -8 -5 -8 -13
0 -8 -5 -15 -11 -15 -7 0 -22 -10 -35 -22 -43 -42 -64 -58 -74 -58 -5 0 -10
-5 -10 -11 0 -5 -4 -7 -10 -4 -5 3 -10 1 -10 -5 0 -6 -11 -15 -25 -20 -14 -5
-25 -14 -25 -20 0 -5 -3 -9 -7 -8 -8 3 -142 -61 -153 -72 -6 -6 -30 -12 -47
-13 -7 0 -13 -4 -13 -9 0 -4 -3 -7 -7 -7 -23 4 -53 -2 -49 -9 3 -5 -5 -8 -17
-7 -12 1 -26 -1 -32 -5 -5 -4 -17 -7 -25 -7 -13 -1 -94 -10 -117 -14 -4 -1
-10 0 -13 1 -17 6 -67 3 -63 -4 4 -5 1 -6 -6 -2 -6 4 -37 12 -69 16 -84 13
-113 20 -134 31 -10 5 -23 7 -28 4 -6 -3 -10 -1 -10 5 0 6 -5 8 -10 5 -6 -3
-10 -1 -10 4 0 6 -7 11 -15 11 -18 0 -57 20 -67 35 -4 6 -8 6 -8 2 0 -11 -60
25 -60 36 0 4 -4 6 -8 3 -5 -3 -20 5 -34 17 -15 12 -39 31 -54 42 -38 27 -124
115 -124 126 0 5 -7 12 -15 15 -8 4 -15 10 -15 15 0 8 -20 36 -48 65 -7 8 -10
14 -5 14 4 0 0 5 -9 11 -10 5 -18 17 -18 26 0 9 -7 24 -16 34 -8 9 -17 23 -19
31 -6 28 -30 78 -37 78 -4 0 -5 6 -2 14 3 7 -2 20 -10 29 -8 8 -12 17 -9 21 3
3 0 13 -8 23 -12 15 -12 16 1 8 12 -7 11 -3 -2 18 -10 14 -18 38 -18 52 0 15
-4 24 -8 21 -4 -2 -7 11 -7 30 1 19 -2 34 -6 34 -4 0 -5 9 -2 20 3 11 1 20 -3
20 -5 0 -10 17 -11 38 -3 55 -24 175 -33 187 -4 6 -13 27 -19 48 -7 20 -16 37
-21 37 -4 0 -7 8 -6 17 2 9 -3 28 -11 42 -7 15 -13 41 -13 59 0 17 -3 32 -8
32 -4 0 -8 12 -8 28 -3 60 -9 92 -17 92 -5 0 -6 9 -2 19 3 11 1 22 -4 25 -6 4
-8 13 -4 21 3 8 0 15 -7 15 -6 0 -9 4 -6 8 3 5 -2 21 -9 36 -8 16 -12 32 -9
37 3 5 0 9 -5 9 -6 0 -10 3 -9 8 3 16 -22 61 -59 101 -30 33 -47 44 -71 45
-18 0 -32 4 -32 8 0 4 -6 6 -12 3 -7 -2 -35 -6 -61 -9 -52 -5 -127 -34 -127
-49 0 -4 -4 -5 -10 -2 -5 3 -10 1 -10 -5 0 -6 -5 -8 -10 -5 -6 3 -13 -1 -16
-9 -3 -9 -12 -16 -19 -16 -6 0 -21 -8 -33 -17 -11 -10 -35 -29 -53 -43 -18
-14 -48 -40 -67 -57 -19 -18 -39 -33 -44 -33 -5 0 -6 -4 -3 -10 3 -5 2 -10 -2
-10 -5 0 -43 -33 -84 -72 -110 -106 -199 -186 -199 -180 0 8 -73 -70 -110
-118 -19 -25 -38 -46 -42 -48 -5 -2 -8 -9 -8 -15 0 -7 -10 -23 -22 -37 -13
-14 -29 -37 -37 -52 -8 -16 -18 -28 -23 -28 -4 0 -8 -7 -8 -15 0 -8 -5 -15
-11 -15 -5 0 -7 -5 -4 -10 3 -6 -1 -13 -9 -16 -9 -3 -16 -12 -16 -18 0 -7 -8
-21 -17 -32 -10 -11 -19 -26 -21 -33 -1 -7 -8 -19 -15 -25 -7 -7 -21 -30 -32
-52 -11 -21 -26 -43 -33 -47 -7 -5 -10 -12 -7 -18 4 -5 1 -9 -6 -9 -7 0 -9 -3
-6 -7 4 -3 1 -13 -7 -22 -7 -9 -26 -38 -41 -66 -15 -27 -39 -70 -53 -95 -13
-25 -29 -51 -35 -57 -5 -7 -6 -13 -3 -13 4 0 0 -7 -8 -16 -9 -8 -16 -22 -16
-30 0 -8 -5 -14 -11 -14 -5 0 -7 -4 -4 -10 3 -5 1 -10 -6 -10 -7 0 -9 -3 -6
-7 4 -3 0 -15 -10 -25 -9 -10 -13 -18 -8 -18 4 0 2 -7 -5 -15 -6 -8 -9 -19 -5
-25 3 -5 -1 -13 -9 -16 -9 -3 -16 -15 -16 -25 0 -10 -4 -19 -10 -19 -5 0 -9
-3 -8 -7 3 -13 -14 -58 -26 -65 -8 -6 -8 -8 1 -8 9 0 8 -7 -2 -27 -8 -15 -12
-30 -9 -35 3 -4 1 -8 -3 -8 -5 0 -10 -8 -11 -17 -2 -23 -10 -58 -12 -58 -3 0
-8 -41 -15 -115 -3 -36 -8 -85 -10 -110 -3 -25 -7 -106 -10 -180 -3 -74 -8
-171 -11 -215 -4 -44 -7 -90 -7 -102 -1 -13 -5 -23 -10 -23 -5 0 -4 -7 3 -15
7 -8 8 -15 3 -15 -5 0 -10 -21 -12 -46 -1 -25 -6 -56 -11 -70 -7 -17 -6 -24 3
-24 7 0 8 -3 2 -8 -5 -4 -11 -23 -13 -42 -4 -50 -7 -63 -15 -77 -5 -7 -4 -13
2 -13 7 0 7 -8 2 -23 -5 -12 -12 -49 -15 -82 -3 -33 -8 -73 -11 -90 -3 -16 -7
-50 -9 -75 -3 -25 -8 -74 -12 -110 -4 -36 -8 -82 -8 -102 -1 -21 -3 -38 -6
-38 -5 0 -11 -67 -14 -162 0 -27 -3 -48 -6 -48 -5 0 -11 -69 -13 -157 -1 -24
-4 -43 -8 -43 -3 0 -6 -7 -6 -15 0 -8 5 -15 10 -15 6 0 6 -5 0 -12 -11 -15
-11 -408 1 -426 4 -7 2 -12 -4 -12 -6 0 -8 -5 -4 -11 7 -12 15 -75 17 -126 0
-18 3 -33 7 -33 3 0 6 -10 7 -22 0 -13 4 -41 8 -63 4 -22 8 -48 8 -57 1 -10 5
-18 10 -18 4 0 6 -4 3 -9 -3 -4 -1 -23 5 -42 6 -19 12 -45 15 -57 3 -13 11
-43 20 -65 17 -49 25 -77 26 -94 1 -7 5 -13 10 -13 4 0 7 -3 6 -7 -3 -14 64
-153 74 -153 5 0 6 -4 3 -10 -3 -5 -1 -10 4 -10 6 0 11 -6 11 -14 0 -7 15 -28
32 -47 18 -19 31 -34 28 -35 -6 -1 46 -59 74 -83 10 -9 31 -28 47 -43 15 -14
30 -23 33 -20 3 3 6 0 6 -6 0 -7 6 -12 14 -12 8 0 16 -3 18 -8 5 -12 130 -72
139 -66 5 3 9 0 9 -7 0 -7 3 -10 6 -6 3 3 18 1 33 -5 91 -35 326 -41 491 -12
19 4 44 8 55 9 11 1 20 3 20 4 0 2 7 4 15 6 8 2 30 8 48 14 17 5 32 7 32 4 0
-3 7 0 15 7 8 7 15 9 15 5 0 -4 7 -2 15 5 8 7 15 9 15 6 0 -4 9 -2 21 4 11 6
30 13 42 16 12 2 23 8 25 13 2 6 10 7 18 4 8 -3 14 0 14 7 0 6 4 9 9 5 5 -3
12 -1 16 5 4 6 11 8 16 5 5 -4 9 -1 9 4 0 6 3 10 8 9 11 -3 122 54 122 64 0 4
3 7 8 6 11 -2 44 14 64 31 10 9 20 14 21 11 2 -3 21 10 44 27 22 18 43 30 47
26 3 -3 6 -1 6 5 0 7 7 12 15 12 8 0 14 5 13 12 -2 7 3 12 10 13 7 0 17 7 22
15 5 8 10 11 10 7 0 -9 73 43 78 56 2 4 8 7 14 7 5 0 15 6 22 13 8 6 24 19 36
27 12 8 29 21 36 28 8 7 14 11 14 7 0 -3 13 8 29 24 16 16 32 27 35 24 3 -4 6
-1 6 6 0 7 4 9 10 6 6 -3 10 -1 10 6 0 7 3 10 6 6 4 -3 15 4 25 16 10 12 18
19 19 15 0 -5 8 0 18 10 10 9 29 24 42 32 13 8 32 23 42 33 10 9 21 17 24 16
6 -1 49 29 69 49 8 6 18 12 24 12 6 0 11 5 11 11 0 5 4 8 8 5 5 -3 19 6 30 19
12 14 29 25 37 25 8 0 15 7 15 15 0 8 3 14 8 13 11 -3 52 21 81 48 14 13 29
24 32 24 4 0 31 19 62 42 30 24 65 50 77 58 13 8 33 25 46 38 13 12 27 22 32
22 5 0 26 15 46 34 20 19 36 32 36 29 0 -3 13 7 28 23 16 16 35 30 42 32 14 3
113 82 118 95 2 4 8 5 13 1 5 -3 12 2 15 10 3 9 12 16 20 16 8 0 14 5 14 10 0
6 7 10 15 10 8 0 15 3 15 8 0 4 23 21 51 37 28 17 58 38 67 47 9 9 19 15 24
12 4 -3 11 2 14 10 3 9 12 16 19 16 6 0 23 10 37 23 14 12 31 23 39 25 8 2 16
7 19 12 3 5 12 10 19 12 8 2 22 10 32 18 40 34 47 39 53 33 3 -4 6 -1 6 5 0 7
5 12 11 12 6 0 17 7 26 15 8 8 19 13 24 10 5 -4 9 -1 9 5 0 6 11 15 25 20 14
5 25 14 25 20 0 6 4 9 9 5 5 -3 12 -1 16 5 4 6 11 8 16 5 5 -4 9 -1 9 5 0 6
14 16 30 21 17 6 30 15 30 21 0 5 4 7 9 3 6 -3 13 1 18 9 4 8 10 14 13 14 13
0 60 26 60 34 0 5 4 7 9 3 5 -3 16 1 24 9 8 8 17 12 21 9 3 -4 6 -1 6 5 0 7 3
11 8 10 4 -1 21 5 37 12 17 7 33 13 38 12 4 -1 7 2 7 7 0 5 14 12 30 16 17 4
30 11 30 16 0 5 3 8 8 7 6 -2 35 7 97 32 49 20 111 42 125 45 8 2 29 8 45 15
17 6 30 10 30 9 0 -3 87 19 115 28 17 6 73 14 108 16 12 0 22 4 22 7 0 4 18 6
40 6 22 -1 40 1 40 4 0 8 40 10 293 13 119 2 217 0 217 -3 0 -3 15 -6 33 -6
33 -1 152 -11 152 -14 0 -3 40 -9 85 -14 25 -3 47 -6 50 -7 3 -1 10 -3 15 -4
6 -2 12 -4 15 -5 3 -1 15 -3 27 -6 20 -3 166 -37 223 -51 14 -3 33 -6 43 -7 9
0 17 -4 17 -8 0 -4 13 -8 28 -8 16 0 32 -3 36 -7 4 -4 19 -8 34 -9 15 -1 27
-2 27 -3 0 -6 102 -24 138 -25 15 -1 27 -4 27 -7 0 -3 15 -5 33 -4 17 0 35 -4
39 -10 5 -6 8 -6 8 2 0 8 9 9 32 2 18 -5 34 -6 35 -2 2 5 24 7 50 7 27 -1 51
3 55 10 6 8 8 8 8 -1 0 -9 10 -9 40 2 22 8 40 12 40 9 0 -2 11 3 25 12 14 9
25 13 25 9 0 -5 9 0 20 10 11 10 20 15 20 11 0 -8 94 54 98 66 2 4 8 8 13 8 5
0 27 19 49 43 22 23 47 49 55 58 8 9 15 21 15 27 0 7 4 12 8 12 8 0 50 84 53
105 0 6 4 15 9 20 7 9 43 144 55 206 9 46 18 105 19 129 1 14 6 31 10 38 4 7
3 12 -2 12 -6 0 -7 14 -3 33 4 17 6 57 5 87 -4 120 -9 185 -15 190 -4 3 -9 25
-12 50 -4 25 -9 58 -13 73 -7 29 -41 60 -56 51 -4 -3 -8 1 -8 8 0 9 -3 9 -10
-2 -7 -11 -10 -11 -10 -2 0 7 -4 10 -10 7 -5 -3 -10 -2 -10 3 0 6 -7 13 -16
16 -10 4 -13 2 -8 -6 5 -7 3 -8 -7 -2 -8 5 -17 9 -21 9 -3 0 -10 4 -15 9 -5 6
-2 6 7 1 13 -8 13 -7 1 8 -7 9 -20 17 -27 17 -7 0 -20 12 -28 28 -8 15 -15 23
-16 19 0 -4 -6 -2 -14 5 -8 7 -12 16 -9 21 2 4 0 7 -5 7 -5 0 -17 18 -28 40
-10 22 -22 40 -26 40 -5 0 -8 9 -8 20 0 11 -4 20 -10 20 -5 0 -10 6 -10 14 0
7 -7 26 -14 42 -8 15 -13 31 -10 36 3 4 1 8 -4 8 -6 0 -24 52 -38 113 -1 4 -2
8 -3 10 -3 3 -13 77 -14 100 -1 9 -4 17 -7 17 -3 0 -5 15 -5 33 0 17 -2 53 -5
80 -4 26 -4 47 -1 47 10 0 6 75 -4 82 -7 5 -7 8 0 8 6 0 11 17 11 38 2 31 6
74 18 172 1 9 5 21 10 28 4 6 5 16 2 20 -3 5 0 19 7 33 7 13 14 38 16 54 1 17
8 33 15 37 6 4 8 8 3 8 -4 0 0 16 8 36 8 20 12 40 9 45 -3 5 0 9 5 9 6 0 11 9
11 20 0 11 4 20 8 20 4 0 8 10 9 21 1 12 9 29 18 39 9 10 17 27 18 39 1 11 5
21 10 21 4 0 6 4 3 9 -4 5 -3 11 1 13 5 1 21 28 37 58 16 30 36 63 44 73 8 9
11 17 7 17 -4 0 -1 8 7 18 14 15 30 48 58 117 27 66 35 224 15 305 -17 72 -47
153 -60 162 -5 4 -7 8 -2 8 4 0 1 13 -8 30 -8 16 -16 33 -16 37 -1 5 -10 20
-20 35 -10 14 -19 31 -19 37 0 6 -5 11 -11 11 -5 0 -7 5 -4 10 3 6 1 10 -4 10
-6 0 -11 8 -11 18 0 10 -9 24 -19 32 -11 7 -18 17 -16 20 3 4 -9 22 -25 40
-17 19 -30 37 -30 42 0 8 -18 31 -57 72 -13 13 -23 29 -23 35 0 7 -4 10 -8 7
-5 -3 -15 6 -22 19 -7 13 -17 22 -22 19 -4 -3 -8 2 -8 10 0 8 -9 18 -20 21
-11 3 -20 12 -20 18 -1 28 -149 120 -213 132 -95 19 -242 26 -287 15z"/>
</g>
</svg>
